<svg height="750" width="720" xmlns="http://www.w3.org/2000/svg">
<rect height="750" fill="#555" width="720"></rect>
<text fill="#7f7" font-family="Courier New" font-size="12" xml:space="preserve">
<tspan x="10" y="26"></tspan>

<tspan x="10" y="42">[MODE_BUILD=buildApp] - 2018-12-08T09:40:56.878Z - npm-testing /home/travis/build/kaizhu256/node\</tspan>
<tspan x="10" y="58">-swagger-ui-lite</tspan>

<tspan x="10" y="74"></tspan>

<tspan x="10" y="90"></tspan>

<tspan x="10" y="106">buildApp - merged test-report from file /home/travis/build/kaizhu256/node-swagger-ui-lite/tmp/bu\</tspan>
<tspan x="10" y="122">ild/test-report.json</tspan>

<tspan x="10" y="138">&gt; server listening on http-port 60559</tspan>

<tspan x="10" y="154">db - dropping database ...</tspan>

<tspan x="10" y="170">&gt; server listening on http-port 44643</tspan>

<tspan x="10" y="186">testRunDefault - 25135 ms - testCase pending - testCase_buildApp_default ...</tspan>

<tspan x="10" y="202">testRunDefault - 29060 ms - [node test-case 1 of 1 passed] - testCase_buildApp_default</tspan>

<tspan x="10" y="218"></tspan>

<tspan x="10" y="234">buildApp - merged test-report from file /home/travis/build/kaizhu256/node-swagger-ui-lite/tmp/bu\</tspan>
<tspan x="10" y="250">ild/test-report.json</tspan>

<tspan x="10" y="266"></tspan>

<tspan x="10" y="282">-------------------------------------------------------</tspan>

<tspan x="10" y="298">| test-report - buildApidoc - node - linux v11.4.0 - 2018-12-08T09:40:34.964Z</tspan>

<tspan x="10" y="314">|   29060 ms            0 failed        1 passed      |</tspan>

<tspan x="10" y="330">-------------------------------------------------------</tspan>

<tspan x="10" y="346">| test-report - npmTest - browser - /assets.utility2.base.html - Mozilla/5.0 (X11; Linux x86_64)\</tspan>
<tspan x="10" y="362"> AppleWebKit/537.36 (KHTML, like Gecko) Chrome/61.0.3163.100 Electron/2.0.14 Safari/537.36 - 201\</tspan>
<tspan x="10" y="378">8-12-08T09:40:26.705Z</tspan>

<tspan x="10" y="394">|    1005 ms            0 failed        3 passed      |</tspan>

<tspan x="10" y="410">-------------------------------------------------------</tspan>

<tspan x="10" y="426">| test-report - npmTest - node - linux v11.4.0 - 2018-12-08T09:40:24.833Z</tspan>

<tspan x="10" y="442">|    7410 ms            0 failed        7 passed      |</tspan>

<tspan x="10" y="458">-------------------------------------------------------</tspan>

<tspan x="10" y="474">| test-report - npmTestPublished - browser - /assets.utility2.base.html - Mozilla/5.0 (X11; Linu\</tspan>
<tspan x="10" y="490">x x86_64) AppleWebKit/537.36 (KHTML, like Gecko) Chrome/61.0.3163.100 Electron/2.0.14 Safari/537\</tspan>
<tspan x="10" y="506">.36 - 2018-12-08T09:39:28.171Z</tspan>

<tspan x="10" y="522">|    1005 ms            0 failed        3 passed      |</tspan>

<tspan x="10" y="538">-------------------------------------------------------</tspan>

<tspan x="10" y="554">| test-report - npmTestPublished - node - linux v11.4.0 - 2018-12-08T09:39:25.962Z</tspan>

<tspan x="10" y="570">|    7753 ms            0 failed        7 passed      |</tspan>

<tspan x="10" y="586">-------------------------------------------------------</tspan>

<tspan x="10" y="602"></tspan>

<tspan x="10" y="618">created test-report file /home/travis/build/kaizhu256/node-swagger-ui-lite/tmp/build/test-report\</tspan>
<tspan x="10" y="634">.html</tspan>

<tspan x="10" y="650"></tspan>

<tspan x="10" y="666"></tspan>

<tspan x="10" y="682">buildApp - 0 failed tests</tspan>

<tspan x="10" y="698"></tspan>

<tspan x="10" y="714"></tspan>

<tspan x="10" y="730">[MODE_BUILD=buildApp] - 2018-12-08T09:41:05.389Z - EXIT_CODE - 0</tspan>

</text>
</svg>
