<svg height="3006" width="720" xmlns="http://www.w3.org/2000/svg">
<rect height="3006" fill="#555" width="720"></rect>
<text fill="#7f7" font-family="Courier New" font-size="12" xml:space="preserve">
<tspan x="10" y="26">2018-11-15 01:05:10 +0800</tspan>

<tspan x="10" y="42">update.build</tspan>

<tspan x="10" y="58"></tspan>

<tspan x="10" y="74">2018-11-15 01:04:15 +0800</tspan>

<tspan x="10" y="90">autofix</tspan>

<tspan x="10" y="106"></tspan>

<tspan x="10" y="122">2018-11-15 01:00:34 +0800</tspan>

<tspan x="10" y="138">autofix</tspan>

<tspan x="10" y="154"></tspan>

<tspan x="10" y="170">2018-11-15 00:54:08 +0800</tspan>

<tspan x="10" y="186">slushy</tspan>

<tspan x="10" y="202"></tspan>

<tspan x="10" y="218">2018-11-14 23:29:32 +0800</tspan>

<tspan x="10" y="234">autofix</tspan>

<tspan x="10" y="250"></tspan>

<tspan x="10" y="266">2018-11-14 23:24:37 +0800</tspan>

<tspan x="10" y="282">autofix</tspan>

<tspan x="10" y="298"></tspan>

<tspan x="10" y="314">2018-11-14 23:19:27 +0800</tspan>

<tspan x="10" y="330">autofix</tspan>

<tspan x="10" y="346"></tspan>

<tspan x="10" y="362">2018-11-14 23:18:36 +0800</tspan>

<tspan x="10" y="378">autofix</tspan>

<tspan x="10" y="394"></tspan>

<tspan x="10" y="410">2018-11-14 23:15:43 +0800</tspan>

<tspan x="10" y="426">autofix</tspan>

<tspan x="10" y="442"></tspan>

<tspan x="10" y="458">2018-11-14 23:15:23 +0800</tspan>

<tspan x="10" y="474">autofix</tspan>

<tspan x="10" y="490"></tspan>

<tspan x="10" y="506">2018-11-14 23:11:30 +0800</tspan>

<tspan x="10" y="522">slushy</tspan>

<tspan x="10" y="538"></tspan>

<tspan x="10" y="554">2018-10-11 11:25:41 +0700</tspan>

<tspan x="10" y="570">slushy</tspan>

<tspan x="10" y="586"></tspan>

<tspan x="10" y="602">2018-08-31 14:37:17 +0700</tspan>

<tspan x="10" y="618">update.build</tspan>

<tspan x="10" y="634"></tspan>

<tspan x="10" y="650">2018-08-31 14:21:58 +0700</tspan>

<tspan x="10" y="666">clidict</tspan>

<tspan x="10" y="682"></tspan>

<tspan x="10" y="698">2018-08-19 21:09:16 +0700</tspan>

<tspan x="10" y="714">[build clean]</tspan>

<tspan x="10" y="730"></tspan>

<tspan x="10" y="746">2018-08-15 11:22:07 +0700</tspan>

<tspan x="10" y="762">update.build</tspan>

<tspan x="10" y="778"></tspan>

<tspan x="10" y="794">2018-08-11 22:58:35 +0700</tspan>

<tspan x="10" y="810">- do not require following nodejs builtins by default: console, constants, module, process, puny\</tspan>
<tspan x="10" y="826">code</tspan>

<tspan x="10" y="842"></tspan>

<tspan x="10" y="858">2018-08-11 20:42:15 +0700</tspan>

<tspan x="10" y="874">[npm publish] - npm publish 2018.8.11</tspan>

<tspan x="10" y="890">- migrate from modeJs -&gt; isBrowser</tspan>

<tspan x="10" y="906">- update build</tspan>

<tspan x="10" y="922"></tspan>

<tspan x="10" y="938">2018-05-25 21:12:57 +0800</tspan>

<tspan x="10" y="954">[npm publish] - npm publish 2018.5.25</tspan>

<tspan x="10" y="970">- update build</tspan>

<tspan x="10" y="986"></tspan>

<tspan x="10" y="1002">2018-04-08 19:19:19 +0800</tspan>

<tspan x="10" y="1018">[npm publish] - npm publish v2018.4.7</tspan>

<tspan x="10" y="1034">- fix ci for nodejs v9.x</tspan>

<tspan x="10" y="1050"></tspan>

<tspan x="10" y="1066">2018-01-15 11:44:52 +0700</tspan>

<tspan x="10" y="1082">[npm publish] - npm publish 2018.1.14</tspan>

<tspan x="10" y="1098">- remove unused browser-code from example.js</tspan>

<tspan x="10" y="1114"></tspan>

<tspan x="10" y="1130">2017-10-29 04:34:10 +0800</tspan>

<tspan x="10" y="1146">[npm publish] - npm publish 2017.10.28</tspan>

<tspan x="10" y="1162">- update build</tspan>

<tspan x="10" y="1178"></tspan>

<tspan x="10" y="1194">2017-09-14 06:27:22 +0700</tspan>

<tspan x="10" y="1210">[npm publish] - npm publish 2017.9.14</tspan>

<tspan x="10" y="1226">- fix shNpmTestPublished</tspan>

<tspan x="10" y="1242"></tspan>

<tspan x="10" y="1258">2017-09-14 05:18:31 +0700</tspan>

<tspan x="10" y="1274">[npm publish] - npm publish 2017.9.13</tspan>

<tspan x="10" y="1290">- move live-demo to top of README.md</tspan>

<tspan x="10" y="1306">- improve test-coverage</tspan>

<tspan x="10" y="1322"></tspan>

<tspan x="10" y="1338">2017-05-31 19:08:33 +0800</tspan>

<tspan x="10" y="1354">[npm publish] - npm publish 2017.5.30</tspan>

<tspan x="10" y="1370">- revamp README.md with updated quickstart and 'table of contents'</tspan>

<tspan x="10" y="1386"></tspan>

<tspan x="10" y="1402">2017-05-02 11:33:49 +0800</tspan>

<tspan x="10" y="1418">[npm publish] - npm publish 2017.5.1</tspan>

<tspan x="10" y="1434">- update build</tspan>

<tspan x="10" y="1450"></tspan>

<tspan x="10" y="1466">2017-03-20 02:34:15 +0800</tspan>

<tspan x="10" y="1482">[npm publish] - npm publish 2017.3.19</tspan>

<tspan x="10" y="1498">- rename dom-element #outputTextareaStdout -&gt; #outputTextareaStdout1</tspan>

<tspan x="10" y="1514">- rename file assets.swagger_ui.json -&gt; assets.swagger_ui.petstore.json</tspan>

<tspan x="10" y="1530"></tspan>

<tspan x="10" y="1546">2017-02-17 04:08:27 +0800</tspan>

<tspan x="10" y="1562">- npm publish 2017.2.2</tspan>

<tspan x="10" y="1578">- fix cdn-download</tspan>

<tspan x="10" y="1594"></tspan>

<tspan x="10" y="1610">2017-02-17 02:32:22 +0800</tspan>

<tspan x="10" y="1626">- npm publish 2017.2.1</tspan>

<tspan x="10" y="1642">- add api-doc</tspan>

<tspan x="10" y="1658">- add heroku test-server</tspan>

<tspan x="10" y="1674">- merge css/html/images into file assets.swagger_ui.html</tspan>

<tspan x="10" y="1690">- rename file swagger.json -&gt; assets.swagger_ui.json</tspan>

<tspan x="10" y="1706">- rename file swagger-ui.rollup.js -&gt; assets.swagger_ui.rollup.js</tspan>

<tspan x="10" y="1722"></tspan>

<tspan x="10" y="1738">2015-12-14 22:31:57 +0800</tspan>

<tspan x="10" y="1754">- npm publish 2015.11.7</tspan>

<tspan x="10" y="1770">- update to nedb @ 1.4.2 and inspected it to work standalone in both nodejs and browser</tspan>

<tspan x="10" y="1786"></tspan>

<tspan x="10" y="1802">2015-12-13 07:02:25 +0800</tspan>

<tspan x="10" y="1818">- npm publish 2015.11.6</tspan>

<tspan x="10" y="1834">- split swagger-ui into swagger-client and swagger-ui</tspan>

<tspan x="10" y="1850">- uglify swagger-ui.rollup.js</tspan>

<tspan x="10" y="1866"></tspan>

<tspan x="10" y="1882">2015-12-11 21:03:09 +0800</tspan>

<tspan x="10" y="1898">- npm publish 2015.11.5</tspan>

<tspan x="10" y="1914">- full revert to swagger-ui 2.1.2</tspan>

<tspan x="10" y="1930"></tspan>

<tspan x="10" y="1946">2015-11-25 15:22:32 +0800</tspan>

<tspan x="10" y="1962">- npm publish 2015.11.4</tspan>

<tspan x="10" y="1978">- revert to swagger-ui 2.1.2</tspan>

<tspan x="10" y="1994"></tspan>

<tspan x="10" y="2010">2015-11-24 22:46:52 +0800</tspan>

<tspan x="10" y="2026">- npm publish 2015.11.2</tspan>

<tspan x="10" y="2042">- deploy assets to gh-pages</tspan>

<tspan x="10" y="2058"></tspan>

<tspan x="10" y="2074">2015-11-16 01:42:05 +0800</tspan>

<tspan x="10" y="2090">- npm publish 2015.11.1</tspan>

<tspan x="10" y="2106">- add nedb.min.js @ 0b564ba6</tspan>

<tspan x="10" y="2122">- update to swagger-tools @ 0.9.9</tspan>

<tspan x="10" y="2138">- update to swagger-ui @ 2.1.4</tspan>

<tspan x="10" y="2154"></tspan>

<tspan x="10" y="2170">2015-08-20 17:50:02 +0800</tspan>

<tspan x="10" y="2186">- npm publish 2015.8.1</tspan>

<tspan x="10" y="2202">- update swagger-ui@2.1.2</tspan>

<tspan x="10" y="2218">- update swagger-tools@0.9.4</tspan>

<tspan x="10" y="2234"></tspan>

<tspan x="10" y="2250">2015-07-31 17:43:36 +0800</tspan>

<tspan x="10" y="2266">- npm publish 2015.6.2</tspan>

<tspan x="10" y="2282">- update swagger-tools</tspan>

<tspan x="10" y="2298"></tspan>

<tspan x="10" y="2314">2015-06-24 23:46:19 +0800</tspan>

<tspan x="10" y="2330">- npm publish 2015.6.1</tspan>

<tspan x="10" y="2346">- fix version breakage with latest npm install</tspan>

<tspan x="10" y="2362"></tspan>

<tspan x="10" y="2378">2015-06-19 23:33:35 +0800</tspan>

<tspan x="10" y="2394">- npm publish 2.1.0-20150619a</tspan>

<tspan x="10" y="2410">- update to swagger@v2.1.0</tspan>

<tspan x="10" y="2426"></tspan>

<tspan x="10" y="2442">2015-05-28 12:34:12 +0800</tspan>

<tspan x="10" y="2458">- npm publish 2.1.5-M2-2015.5.28-b</tspan>

<tspan x="10" y="2474">- add http://petstore.swagger.io/lib/swagger-oauth.js to swagger-ui.rollup.js</tspan>

<tspan x="10" y="2490">- update to swagger@v2.1.5-M2</tspan>

<tspan x="10" y="2506">- add swagger.json</tspan>

<tspan x="10" y="2522"></tspan>

<tspan x="10" y="2538">2015-05-06 20:57:35 +0800</tspan>

<tspan x="10" y="2554">- npm publish 2.1.0-M2-2015.5.6-a</tspan>

<tspan x="10" y="2570"></tspan>

<tspan x="10" y="2586">2015-05-06 20:53:38 +0800</tspan>

<tspan x="10" y="2602">update README.md</tspan>

<tspan x="10" y="2618"></tspan>

<tspan x="10" y="2634">2015-05-06 20:34:16 +0800</tspan>

<tspan x="10" y="2650">update README.md</tspan>

<tspan x="10" y="2666"></tspan>

<tspan x="10" y="2682">2015-05-05 21:52:02 +0800</tspan>

<tspan x="10" y="2698">- add Function.prototype.bind polyfill to swagger-ui.rollup.js</tspan>

<tspan x="10" y="2714"></tspan>

<tspan x="10" y="2730">2015-05-02 01:08:42 +0800</tspan>

<tspan x="10" y="2746">'update comments'</tspan>

<tspan x="10" y="2762"></tspan>

<tspan x="10" y="2778">2015-04-23 14:00:42 +0800</tspan>

<tspan x="10" y="2794">npm publish 2015.4.23-b</tspan>

<tspan x="10" y="2810"></tspan>

<tspan x="10" y="2826">2015-04-20 10:32:34 +0800</tspan>

<tspan x="10" y="2842">re-arrange rolled-up files in swagger-ui.rollup.js to make it easier to integrate into node env</tspan>

<tspan x="10" y="2858"></tspan>

<tspan x="10" y="2874">2015-04-19 14:49:54 +0800</tspan>

<tspan x="10" y="2890">npm publish 2.1.0-M2-2015-04-19-a</tspan>

<tspan x="10" y="2906"></tspan>

<tspan x="10" y="2922">2015-04-19 14:15:07 +0800</tspan>

<tspan x="10" y="2938">update to swagger 2.1.0-M2</tspan>

<tspan x="10" y="2954"></tspan>

<tspan x="10" y="2970">2015-04-19 13:18:07 +0800</tspan>

<tspan x="10" y="2986">update dependencies</tspan>

</text>
</svg>
