<svg height="3038" width="720" xmlns="http://www.w3.org/2000/svg">
<rect height="3038" fill="#555" width="720"></rect>
<text fill="#7f7" font-family="Courier New" font-size="12" xml:space="preserve">
<tspan x="10" y="26">2018-12-08 03:17:11 -0600</tspan>

<tspan x="10" y="42">[npm publish] - npm publish 2018.12.8</tspan>

<tspan x="10" y="58">- do not require following nodejs builtins by default: console, constants, module, process, puny\</tspan>
<tspan x="10" y="74">code</tspan>

<tspan x="10" y="90">- update build</tspan>

<tspan x="10" y="106"></tspan>

<tspan x="10" y="122">2018-08-11 20:42:15 +0700</tspan>

<tspan x="10" y="138">[npm publish] - npm publish 2018.8.11</tspan>

<tspan x="10" y="154">- migrate from modeJs -&gt; isBrowser</tspan>

<tspan x="10" y="170">- update build</tspan>

<tspan x="10" y="186"></tspan>

<tspan x="10" y="202">2018-05-25 21:12:57 +0800</tspan>

<tspan x="10" y="218">[npm publish] - npm publish 2018.5.25</tspan>

<tspan x="10" y="234">- update build</tspan>

<tspan x="10" y="250"></tspan>

<tspan x="10" y="266">2018-04-08 19:19:19 +0800</tspan>

<tspan x="10" y="282">[npm publish] - npm publish v2018.4.7</tspan>

<tspan x="10" y="298">- fix ci for nodejs v9.x</tspan>

<tspan x="10" y="314"></tspan>

<tspan x="10" y="330">2018-01-15 11:44:52 +0700</tspan>

<tspan x="10" y="346">[npm publish] - npm publish 2018.1.14</tspan>

<tspan x="10" y="362">- remove unused browser-code from example.js</tspan>

<tspan x="10" y="378"></tspan>

<tspan x="10" y="394">2017-10-29 04:34:10 +0800</tspan>

<tspan x="10" y="410">[npm publish] - npm publish 2017.10.28</tspan>

<tspan x="10" y="426">- update build</tspan>

<tspan x="10" y="442"></tspan>

<tspan x="10" y="458">2017-09-14 06:27:22 +0700</tspan>

<tspan x="10" y="474">[npm publish] - npm publish 2017.9.14</tspan>

<tspan x="10" y="490">- fix shNpmTestPublished</tspan>

<tspan x="10" y="506"></tspan>

<tspan x="10" y="522">2017-09-14 05:18:31 +0700</tspan>

<tspan x="10" y="538">[npm publish] - npm publish 2017.9.13</tspan>

<tspan x="10" y="554">- move live-demo to top of README.md</tspan>

<tspan x="10" y="570">- improve test-coverage</tspan>

<tspan x="10" y="586"></tspan>

<tspan x="10" y="602">2017-05-31 19:08:33 +0800</tspan>

<tspan x="10" y="618">[npm publish] - npm publish 2017.5.30</tspan>

<tspan x="10" y="634">- revamp README.md with updated quickstart and 'table of contents'</tspan>

<tspan x="10" y="650"></tspan>

<tspan x="10" y="666">2017-05-02 11:33:49 +0800</tspan>

<tspan x="10" y="682">[npm publish] - npm publish 2017.5.1</tspan>

<tspan x="10" y="698">- update build</tspan>

<tspan x="10" y="714"></tspan>

<tspan x="10" y="730">2017-03-20 02:34:15 +0800</tspan>

<tspan x="10" y="746">[npm publish] - npm publish 2017.3.19</tspan>

<tspan x="10" y="762">- rename dom-element #outputTextareaStdout -&gt; #outputTextareaStdout1</tspan>

<tspan x="10" y="778">- rename file assets.swagger_ui.json -&gt; assets.swagger_ui.petstore.json</tspan>

<tspan x="10" y="794"></tspan>

<tspan x="10" y="810">2017-02-17 04:08:27 +0800</tspan>

<tspan x="10" y="826">- npm publish 2017.2.2</tspan>

<tspan x="10" y="842">- fix cdn-download</tspan>

<tspan x="10" y="858"></tspan>

<tspan x="10" y="874">2017-02-17 02:32:22 +0800</tspan>

<tspan x="10" y="890">- npm publish 2017.2.1</tspan>

<tspan x="10" y="906">- add api-doc</tspan>

<tspan x="10" y="922">- add heroku test-server</tspan>

<tspan x="10" y="938">- merge css/html/images into file assets.swagger_ui.html</tspan>

<tspan x="10" y="954">- rename file swagger.json -&gt; assets.swagger_ui.json</tspan>

<tspan x="10" y="970">- rename file swagger-ui.rollup.js -&gt; assets.swagger_ui.rollup.js</tspan>

<tspan x="10" y="986"></tspan>

<tspan x="10" y="1002">2015-12-14 22:31:57 +0800</tspan>

<tspan x="10" y="1018">- npm publish 2015.11.7</tspan>

<tspan x="10" y="1034">- update to nedb @ 1.4.2 and inspected it to work standalone in both nodejs and browser</tspan>

<tspan x="10" y="1050"></tspan>

<tspan x="10" y="1066">2015-12-13 07:02:25 +0800</tspan>

<tspan x="10" y="1082">- npm publish 2015.11.6</tspan>

<tspan x="10" y="1098">- split swagger-ui into swagger-client and swagger-ui</tspan>

<tspan x="10" y="1114">- uglify swagger-ui.rollup.js</tspan>

<tspan x="10" y="1130"></tspan>

<tspan x="10" y="1146">2015-12-11 21:03:09 +0800</tspan>

<tspan x="10" y="1162">- npm publish 2015.11.5</tspan>

<tspan x="10" y="1178">- full revert to swagger-ui 2.1.2</tspan>

<tspan x="10" y="1194"></tspan>

<tspan x="10" y="1210">2015-11-25 15:22:32 +0800</tspan>

<tspan x="10" y="1226">- npm publish 2015.11.4</tspan>

<tspan x="10" y="1242">- revert to swagger-ui 2.1.2</tspan>

<tspan x="10" y="1258"></tspan>

<tspan x="10" y="1274">2015-11-24 22:46:52 +0800</tspan>

<tspan x="10" y="1290">- npm publish 2015.11.2</tspan>

<tspan x="10" y="1306">- deploy assets to gh-pages</tspan>

<tspan x="10" y="1322"></tspan>

<tspan x="10" y="1338">2015-11-16 01:42:05 +0800</tspan>

<tspan x="10" y="1354">- npm publish 2015.11.1</tspan>

<tspan x="10" y="1370">- add nedb.min.js @ 0b564ba6</tspan>

<tspan x="10" y="1386">- update to swagger-tools @ 0.9.9</tspan>

<tspan x="10" y="1402">- update to swagger-ui @ 2.1.4</tspan>

<tspan x="10" y="1418"></tspan>

<tspan x="10" y="1434">2015-08-20 17:50:02 +0800</tspan>

<tspan x="10" y="1450">- npm publish 2015.8.1</tspan>

<tspan x="10" y="1466">- update swagger-ui@2.1.2</tspan>

<tspan x="10" y="1482">- update swagger-tools@0.9.4</tspan>

<tspan x="10" y="1498"></tspan>

<tspan x="10" y="1514">2015-07-31 17:43:36 +0800</tspan>

<tspan x="10" y="1530">- npm publish 2015.6.2</tspan>

<tspan x="10" y="1546">- update swagger-tools</tspan>

<tspan x="10" y="1562"></tspan>

<tspan x="10" y="1578">2015-06-24 23:46:19 +0800</tspan>

<tspan x="10" y="1594">- npm publish 2015.6.1</tspan>

<tspan x="10" y="1610">- fix version breakage with latest npm install</tspan>

<tspan x="10" y="1626"></tspan>

<tspan x="10" y="1642">2015-06-19 23:33:35 +0800</tspan>

<tspan x="10" y="1658">- npm publish 2.1.0-20150619a</tspan>

<tspan x="10" y="1674">- update to swagger@v2.1.0</tspan>

<tspan x="10" y="1690"></tspan>

<tspan x="10" y="1706">2015-05-28 12:34:12 +0800</tspan>

<tspan x="10" y="1722">- npm publish 2.1.5-M2-2015.5.28-b</tspan>

<tspan x="10" y="1738">- add http://petstore.swagger.io/lib/swagger-oauth.js to swagger-ui.rollup.js</tspan>

<tspan x="10" y="1754">- update to swagger@v2.1.5-M2</tspan>

<tspan x="10" y="1770">- add swagger.json</tspan>

<tspan x="10" y="1786"></tspan>

<tspan x="10" y="1802">2015-05-06 20:57:35 +0800</tspan>

<tspan x="10" y="1818">- npm publish 2.1.0-M2-2015.5.6-a</tspan>

<tspan x="10" y="1834"></tspan>

<tspan x="10" y="1850">2015-05-06 20:53:38 +0800</tspan>

<tspan x="10" y="1866">update README.md</tspan>

<tspan x="10" y="1882"></tspan>

<tspan x="10" y="1898">2015-05-06 20:34:16 +0800</tspan>

<tspan x="10" y="1914">update README.md</tspan>

<tspan x="10" y="1930"></tspan>

<tspan x="10" y="1946">2015-05-05 21:52:02 +0800</tspan>

<tspan x="10" y="1962">- add Function.prototype.bind polyfill to swagger-ui.rollup.js</tspan>

<tspan x="10" y="1978"></tspan>

<tspan x="10" y="1994">2015-05-02 01:08:42 +0800</tspan>

<tspan x="10" y="2010">'update comments'</tspan>

<tspan x="10" y="2026"></tspan>

<tspan x="10" y="2042">2015-04-23 14:00:42 +0800</tspan>

<tspan x="10" y="2058">npm publish 2015.4.23-b</tspan>

<tspan x="10" y="2074"></tspan>

<tspan x="10" y="2090">2015-04-20 10:32:34 +0800</tspan>

<tspan x="10" y="2106">re-arrange rolled-up files in swagger-ui.rollup.js to make it easier to integrate into node env</tspan>

<tspan x="10" y="2122"></tspan>

<tspan x="10" y="2138">2015-04-19 14:49:54 +0800</tspan>

<tspan x="10" y="2154">npm publish 2.1.0-M2-2015-04-19-a</tspan>

<tspan x="10" y="2170"></tspan>

<tspan x="10" y="2186">2015-04-19 14:15:07 +0800</tspan>

<tspan x="10" y="2202">update to swagger 2.1.0-M2</tspan>

<tspan x="10" y="2218"></tspan>

<tspan x="10" y="2234">2015-04-19 13:18:07 +0800</tspan>

<tspan x="10" y="2250">update dependencies</tspan>

<tspan x="10" y="2266"></tspan>

<tspan x="10" y="2282">2015-03-29 00:57:57 +0800</tspan>

<tspan x="10" y="2298">npm publish 2.1.8-M1-2015-03-29-a</tspan>

<tspan x="10" y="2314"></tspan>

<tspan x="10" y="2330">2015-03-29 00:41:28 +0800</tspan>

<tspan x="10" y="2346">fix screen-capture</tspan>

<tspan x="10" y="2362"></tspan>

<tspan x="10" y="2378">2015-03-29 00:06:11 +0800</tspan>

<tspan x="10" y="2394">fix build</tspan>

<tspan x="10" y="2410"></tspan>

<tspan x="10" y="2426">2015-03-28 23:25:16 +0800</tspan>

<tspan x="10" y="2442">update build</tspan>

<tspan x="10" y="2458"></tspan>

<tspan x="10" y="2474">2015-03-28 22:40:49 +0800</tspan>

<tspan x="10" y="2490">testing build</tspan>

<tspan x="10" y="2506"></tspan>

<tspan x="10" y="2522">2015-03-26 03:37:40 +0800</tspan>

<tspan x="10" y="2538">add swagger-tools-standalone.js</tspan>

<tspan x="10" y="2554"></tspan>

<tspan x="10" y="2570">2015-03-26 03:07:17 +0800</tspan>

<tspan x="10" y="2586">update README.md</tspan>

<tspan x="10" y="2602"></tspan>

<tspan x="10" y="2618">2015-03-26 02:56:51 +0800</tspan>

<tspan x="10" y="2634">add .travis.yml</tspan>

<tspan x="10" y="2650"></tspan>

<tspan x="10" y="2666">2015-03-26 02:37:53 +0800</tspan>

<tspan x="10" y="2682">add swagger-tools-standalone-min.js</tspan>

<tspan x="10" y="2698"></tspan>

<tspan x="10" y="2714">2015-03-12 12:39:48 +0800</tspan>

<tspan x="10" y="2730">npm publish 2.1.8-M1-2015-03-12-c - fix screen-capture bug on npmjs.com</tspan>

<tspan x="10" y="2746"></tspan>

<tspan x="10" y="2762">2015-03-12 12:34:09 +0800</tspan>

<tspan x="10" y="2778">npm publish 2.1.8-M1-2015-03-12-b - add screen-capture</tspan>

<tspan x="10" y="2794"></tspan>

<tspan x="10" y="2810">2015-03-12 10:34:36 +0800</tspan>

<tspan x="10" y="2826">npm publish 2.1.8-M1-2015-03-12-a</tspan>

<tspan x="10" y="2842"></tspan>

<tspan x="10" y="2858">2015-03-12 09:54:51 +0800</tspan>

<tspan x="10" y="2874">add "swagger-ui." prefix to all assets</tspan>

<tspan x="10" y="2890"></tspan>

<tspan x="10" y="2906">2015-03-11 17:02:22 +0800</tspan>

<tspan x="10" y="2922">npm publish 2.1.8-M1-2015-03-11-b</tspan>

<tspan x="10" y="2938"></tspan>

<tspan x="10" y="2954">2015-03-11 16:32:47 +0800</tspan>

<tspan x="10" y="2970">Update README.md</tspan>

<tspan x="10" y="2986">2015-03-11 16:14:06 +0800</tspan>

<tspan x="10" y="3002">- npm publish 2.1.8-M1-2015-03-11-a</tspan>

<tspan x="10" y="3018">- update to swagger-ui v2.1.8-M1</tspan>

</text>
</svg>
